<mxfile host="app.diagrams.net" agent="Mozilla/5.0 (Windows NT 10.0; Win64; x64) AppleWebKit/537.36 (KHTML, like Gecko) Chrome/136.0.0.0 Safari/537.36" version="27.1.1">
  <diagram name="Page-1" id="LBR9Mg484h6upQu0N9ut">
    <mxGraphModel dx="1426" dy="777" grid="1" gridSize="10" guides="1" tooltips="1" connect="1" arrows="1" fold="1" page="1" pageScale="1" pageWidth="827" pageHeight="1169" math="0" shadow="0">
      <root>
        <mxCell id="0" />
        <mxCell id="1" parent="0" />
        <mxCell id="aecNt4XWu5_pvg7g9nR3-17" style="edgeStyle=orthogonalEdgeStyle;rounded=0;orthogonalLoop=1;jettySize=auto;html=1;entryX=0;entryY=0.5;entryDx=0;entryDy=0;" edge="1" parent="1" source="aecNt4XWu5_pvg7g9nR3-7" target="aecNt4XWu5_pvg7g9nR3-8">
          <mxGeometry relative="1" as="geometry" />
        </mxCell>
        <mxCell id="aecNt4XWu5_pvg7g9nR3-7" value="" style="rounded=1;whiteSpace=wrap;html=1;" vertex="1" parent="1">
          <mxGeometry x="50" y="120" width="200" height="300" as="geometry" />
        </mxCell>
        <mxCell id="aecNt4XWu5_pvg7g9nR3-1" value="" style="sketch=0;aspect=fixed;pointerEvents=1;shadow=0;dashed=0;html=1;strokeColor=none;labelPosition=center;verticalLabelPosition=bottom;verticalAlign=top;align=center;fillColor=light-dark(#0f0f0f, #bfd3ff);shape=mxgraph.azure.computer" vertex="1" parent="1">
          <mxGeometry x="76.66" y="191" width="133.33" height="120" as="geometry" />
        </mxCell>
        <mxCell id="aecNt4XWu5_pvg7g9nR3-2" value="HTML" style="text;strokeColor=none;align=center;fillColor=none;html=1;verticalAlign=middle;whiteSpace=wrap;rounded=0;" vertex="1" parent="1">
          <mxGeometry x="113.32" y="200" width="60" height="30" as="geometry" />
        </mxCell>
        <mxCell id="aecNt4XWu5_pvg7g9nR3-3" value="CSS" style="text;strokeColor=none;align=center;fillColor=none;html=1;verticalAlign=middle;whiteSpace=wrap;rounded=0;" vertex="1" parent="1">
          <mxGeometry x="112.32" y="222.5" width="60" height="30" as="geometry" />
        </mxCell>
        <mxCell id="aecNt4XWu5_pvg7g9nR3-4" value="JavaScript" style="text;strokeColor=none;align=center;fillColor=none;html=1;verticalAlign=middle;whiteSpace=wrap;rounded=0;" vertex="1" parent="1">
          <mxGeometry x="103.32" y="242" width="80" height="30" as="geometry" />
        </mxCell>
        <mxCell id="aecNt4XWu5_pvg7g9nR3-6" value="HTML, CSS and JavaScript for Responsive Web Pages" style="text;strokeColor=none;align=center;fillColor=none;html=1;verticalAlign=middle;whiteSpace=wrap;rounded=0;" vertex="1" parent="1">
          <mxGeometry x="73.33" y="330" width="140" height="30" as="geometry" />
        </mxCell>
        <mxCell id="aecNt4XWu5_pvg7g9nR3-18" style="edgeStyle=orthogonalEdgeStyle;rounded=0;orthogonalLoop=1;jettySize=auto;html=1;entryX=0;entryY=0.5;entryDx=0;entryDy=0;" edge="1" parent="1" source="aecNt4XWu5_pvg7g9nR3-8" target="aecNt4XWu5_pvg7g9nR3-9">
          <mxGeometry relative="1" as="geometry" />
        </mxCell>
        <mxCell id="aecNt4XWu5_pvg7g9nR3-8" value="" style="rounded=1;whiteSpace=wrap;html=1;" vertex="1" parent="1">
          <mxGeometry x="320" y="120" width="200" height="300" as="geometry" />
        </mxCell>
        <mxCell id="aecNt4XWu5_pvg7g9nR3-9" value="" style="rounded=1;whiteSpace=wrap;html=1;" vertex="1" parent="1">
          <mxGeometry x="597" y="120" width="200" height="300" as="geometry" />
        </mxCell>
        <mxCell id="aecNt4XWu5_pvg7g9nR3-10" value="PHP controllers implementing business logic (OO-based), RESTful endpoints,&lt;br/&gt;and integration with the SMS gateway" style="text;strokeColor=none;align=center;fillColor=none;html=1;verticalAlign=middle;whiteSpace=wrap;rounded=0;" vertex="1" parent="1">
          <mxGeometry x="330" y="300" width="180" height="70" as="geometry" />
        </mxCell>
        <mxCell id="aecNt4XWu5_pvg7g9nR3-11" value="&lt;font style=&quot;font-size: 20px;&quot;&gt;PHP&lt;/font&gt;" style="text;strokeColor=default;align=center;fillColor=none;html=1;verticalAlign=middle;whiteSpace=wrap;rounded=1;" vertex="1" parent="1">
          <mxGeometry x="360" y="217.5" width="120" height="45" as="geometry" />
        </mxCell>
        <mxCell id="aecNt4XWu5_pvg7g9nR3-12" value="" style="shape=datastore;whiteSpace=wrap;html=1;" vertex="1" parent="1">
          <mxGeometry x="665" y="202.5" width="60" height="60" as="geometry" />
        </mxCell>
        <mxCell id="aecNt4XWu5_pvg7g9nR3-13" value="MySQL database for persistent storage of clinic data. " style="text;strokeColor=none;align=center;fillColor=none;html=1;verticalAlign=middle;whiteSpace=wrap;rounded=0;" vertex="1" parent="1">
          <mxGeometry x="627" y="300" width="140" height="30" as="geometry" />
        </mxCell>
        <mxCell id="aecNt4XWu5_pvg7g9nR3-14" value="&lt;font style=&quot;font-size: 16px;&quot;&gt;Presentation Layer&lt;/font&gt;" style="text;strokeColor=none;align=center;fillColor=none;html=1;verticalAlign=middle;whiteSpace=wrap;rounded=0;" vertex="1" parent="1">
          <mxGeometry x="55" y="150" width="190" height="30" as="geometry" />
        </mxCell>
        <mxCell id="aecNt4XWu5_pvg7g9nR3-15" value="&lt;font style=&quot;font-size: 16px;&quot;&gt;Application Layer&lt;/font&gt;" style="text;strokeColor=none;align=center;fillColor=none;html=1;verticalAlign=middle;whiteSpace=wrap;rounded=0;" vertex="1" parent="1">
          <mxGeometry x="347" y="150" width="134" height="30" as="geometry" />
        </mxCell>
        <mxCell id="aecNt4XWu5_pvg7g9nR3-16" value="&lt;font style=&quot;font-size: 16px;&quot;&gt;Data Layer&lt;/font&gt;" style="text;strokeColor=none;align=center;fillColor=none;html=1;verticalAlign=middle;whiteSpace=wrap;rounded=0;" vertex="1" parent="1">
          <mxGeometry x="641" y="150" width="108" height="30" as="geometry" />
        </mxCell>
      </root>
    </mxGraphModel>
  </diagram>
</mxfile>
